# xmcd
#
# Track frame offsets:
#	150
#	11762
#	27992
#	49212
#	60407
#	75887
#	96182
#	122337
#	137725
#	150237
#	161785
#	171167
#	187380
#	199127
#	215590
#	230080
#	248007
#	261472
#	277925
#	286915
#	303990
#
# Disc length: 4139 seconds
#
# Revision: 3
# Processed by: cddbd v1.5.2PL0 Copyright (c) Steve Scherf et al.
# Submitted via: EasyCDDAExtractor 15.2.5.1
#
DISCID=25102915
DTITLE=Various Artist - The Best Ever Country Drinking Songs - Disc 2
DYEAR=2000
DGENRE=Country
TTITLE0=Slim Dusty - Duncan
TTITLE1=Charlie Daniels Band - Devil Went Down To Georgia
TTITLE2=The Allman Brothers Band - Ramblin' Man
TTITLE3=Roger Miller - King Of The Road
TTITLE4=Georgia Satellites - Keep Yuor Hands To Yourself
TTITLE5=Steve Earle - Copperhead Road
TTITLE6=George Thoroughgood - 1 Bourbon, 1 Scotch, 1 Beer
TTITLE7=Canned Heat - On The Road Again
TTITLE8=Lee Kernaghan - Boys From The Bush
TTITLE9=Chris Ledoux and Garth Brooks - Watcha Gonna Do With A Cowboy
TTITLE10=Kasey Chambers - We're All Gonna Die Someday
TTITLE11=Nitty Gritty Dirt Band - Mr Bojangles
TTITLE12=Hank Thompson - Hangover Tavern
TTITLE13=The Band - King Harvest
TTITLE14=Troy Cassar-Daley with Slim Dusty - The Biggest Disappointment-T C
TTITLE15=Tony Joe White - Steamy Windows
TTITLE16=Tania Kernaghan - Boys In Boots
TTITLE17=John Williamson - Queensland Bungalow
TTITLE18=Frankie Laine - Rawhide
TTITLE19=George Jones - Bartender Blues
TTITLE20=Bonus Track - Special
EXTD=
EXTT0=
EXTT1=
EXTT2=
EXTT3=
EXTT4=
EXTT5=
EXTT6=
EXTT7=
EXTT8=
EXTT9=
EXTT10=
EXTT11=
EXTT12=
EXTT13=
EXTT14=
EXTT15=
EXTT16=
EXTT17=
EXTT18=
EXTT19=
EXTT20=
PLAYORDER=
